<?xml version="1.0" encoding="utf-8"?>
<!-- Generator: Adobe Illustrator 24.0.2, SVG Export Plug-In . SVG Version: 6.00 Build 0)  -->
<svg version="1.1"
	 id="svg3888" inkscape:version="0.48.3.1 r9886" sodipodi:docname="thumbs_up_font_awesome.svg" xmlns:cc="http://creativecommons.org/ns#" xmlns:dc="http://purl.org/dc/elements/1.1/" xmlns:inkscape="http://www.inkscape.org/namespaces/inkscape" xmlns:rdf="http://www.w3.org/1999/02/22-rdf-syntax-ns#" xmlns:sodipodi="http://sodipodi.sourceforge.net/DTD/sodipodi-0.dtd" xmlns:svg="http://www.w3.org/2000/svg"
	 xmlns="http://www.w3.org/2000/svg" xmlns:xlink="http://www.w3.org/1999/xlink" x="0px" y="0px" viewBox="0 0 841.9 595.3"
	 style="enable-background:new 0 0 841.9 595.3;" xml:space="preserve">
<style type="text/css">
	.st0{fill:#2980B9;}
</style>
<sodipodi:namedview  bordercolor="#666666" borderopacity="1" gridtolerance="10" guidetolerance="10" id="namedview3894" inkscape:current-layer="svg3888" inkscape:cx="896" inkscape:cy="896" inkscape:pageopacity="0" inkscape:pageshadow="2" inkscape:window-height="480" inkscape:window-maximized="0" inkscape:window-width="640" inkscape:window-x="0" inkscape:window-y="25" inkscape:zoom="0.13169643" objecttolerance="10" pagecolor="#ffffff" showgrid="false">
	</sodipodi:namedview>
<g id="g3890" transform="matrix(1,0,0,-1,129.08475,1346.1695)">
	<path id="path3892" inkscape:connector-curvature="0" class="st0" d="M286.1,879.7c0,5.8-2.1,10.7-6.3,14.9
		c-4.2,4.2-9.2,6.3-14.9,6.3s-10.7-2.1-14.9-6.3c-4.2-4.2-6.3-9.2-6.3-14.9s2.1-10.7,6.3-14.9c4.2-4.2,9.2-6.3,14.9-6.3
		s10.7,2.1,14.9,6.3S286.1,874,286.1,879.7z M668.8,1071.1c0,11.3-4.3,21.2-13,29.7c-8.6,8.5-18.5,12.8-29.6,12.8H509.4
		c0,12.8,5.3,30.5,15.9,53c10.6,22.5,15.9,40.2,15.9,53.3c0,21.7-3.5,37.8-10.6,48.2s-21.3,15.6-42.5,15.6
		c-5.8-5.8-10-15.2-12.6-28.2s-6-27-10.1-41.7c-4.1-14.7-10.7-26.9-19.8-36.4c-4.9-5.1-13.4-15.2-25.6-30.2c-0.9-1.1-3.4-4.4-7.6-10
		c-4.2-5.5-7.7-10.1-10.5-13.6s-6.6-8.2-11.5-14.1c-4.9-5.9-9.3-10.7-13.3-14.6c-4-3.9-8.2-7.8-12.8-11.8c-4.5-4-9-7-13.3-9
		c-4.3-2-8.2-3-11.8-3h-10.6V858.5h10.6c2.9,0,6.4-0.3,10.5-1s7.8-1.4,11-2.2s7.4-2,12.6-3.7c5.2-1.7,9.1-2.9,11.6-3.8
		c2.5-0.9,6.5-2.3,11.8-4.2c5.3-1.9,8.5-3,9.6-3.5C453.1,824,491,816,520,816h40.2c42.5,0,63.8,18.5,63.8,55.5
		c0,5.8-0.6,12-1.7,18.6c6.6,3.5,11.9,9.4,15.8,17.4c3.9,8.1,5.8,16.2,5.8,24.4s-2,15.8-6,22.9c11.7,11.1,17.6,24.2,17.6,39.5
		c0,5.5-1.1,11.7-3.3,18.4c-2.2,6.8-5,12-8.3,15.8c7.1,0.2,13,5.4,17.8,15.6C666.4,1054.4,668.8,1063.3,668.8,1071.1z M711.3,1071.4
		c0-19.7-5.4-37.8-16.3-54.1c2-7.3,3-14.9,3-22.9c0-17.1-4.2-33-12.6-47.8c0.7-4.7,1-9.4,1-14.3c0-22.4-6.6-42.1-19.9-59.1
		c0.2-30.8-9.2-55.1-28.2-72.9s-44.2-26.7-75.4-26.7h-12H520c-21.3,0-42.2,2.5-62.9,7.5c-20.7,5-44.7,12.2-71.9,21.8
		c-25.7,8.9-41,13.3-45.8,13.3h-95.7c-11.7,0-21.8,4.2-30.1,12.5s-12.5,18.3-12.5,30.1v212.6c0,11.7,4.2,21.8,12.5,30.1
		c8.3,8.3,18.3,12.5,30.1,12.5h91c8,5.3,23.1,22.5,45.5,51.5c12.8,16.6,24.7,30.8,35.5,42.5c5.3,5.5,9.2,15,11.8,28.4
		c2.5,13.4,5.9,27.4,10.1,42c4.2,14.6,11.1,26.6,20.6,35.9c8.6,8.2,18.6,12.3,29.9,12.3c18.6,0,35.3-3.6,50.2-10.8
		c14.8-7.2,26.1-18.4,33.9-33.7c7.8-15.3,11.6-35.9,11.6-61.8c0-20.6-5.3-41.9-15.9-63.8h58.5c23,0,43-8.4,59.8-25.2
		C702.9,1114,711.3,1094.2,711.3,1071.4z"/>
</g>
</svg>
